<?xml version="1.0" encoding="iso-8859-1"?>
<!-- Generator: Adobe Illustrator 19.0.0, SVG Export Plug-In . SVG Version: 6.00 Build 0)  -->
<svg version="1.1" id="Layer_1" xmlns="http://www.w3.org/2000/svg" xmlns:xlink="http://www.w3.org/1999/xlink" x="0px" y="0px"
	 viewBox="0 0 512 512" style="enable-background:new 0 0 512 512;" xml:space="preserve">
<path style="fill:#FFC033;" d="M492.017,295.151c28.912-24.224,23.442-59.164,2.679-76.69c-8.261-7.033-11.832-13.507-2.902-25.34
	c17.861-23.777,10.27-58.606-19.09-73.341c-8.261-4.019-12.054-11.721-7.032-22.884c7.59-17.191,2.008-35.833-13.73-45.21
	c-14.848-8.819-71.891-27.014-181.398,113.751c-3.573,4.465-9.043,6.698-14.512,6.698c-5.581,0-11.051-2.233-14.512-6.698
	C132.012,24.672,74.969,42.868,60.01,51.687c-15.627,9.377-21.32,28.019-13.73,45.098c5.023,11.163,1.452,18.865-7.59,23.331
	c-25.675,12.949-38.959,45.88-16.41,75.685c5.135,6.809,4.576,14.512-5.024,22.549c-20.986,17.861-25.897,52.801,2.679,76.801
	c6.475,5.358,7.815,13.061,0.223,22.996c-17.749,23.777-10.27,58.494,19.201,73.341c8.149,4.019,11.608,12.614,8.149,20.317
	c-9.601,21.433-2.345,38.847,12.501,47.778c54.81,32.709,141.993-62.959,181.51-113.751c3.462-4.465,8.93-6.698,14.512-6.698
	c5.47,0,10.94,2.233,14.512,6.698c109.508,140.765,166.551,122.569,181.398,113.751c15.739-9.377,21.32-28.018,13.73-45.322
	c-5.023-11.051-1.229-18.754,7.701-23.106c27.907-14.065,36.615-48.783,18.419-72.894
	C484.314,308.212,485.543,300.51,492.017,295.151z"/>
<path style="fill:#F9A926;" d="M491.793,318.259c18.196,24.112,9.489,58.829-18.419,72.894c-8.93,4.354-12.725,12.056-7.701,23.106
	c7.59,17.303,2.008,35.945-13.73,45.322c-14.848,8.819-71.891,27.014-181.398-113.751c-3.573-4.465-9.043-6.698-14.512-6.698
	V172.134c5.47,0,10.94-2.233,14.512-6.698C380.051,24.671,437.094,42.867,451.942,51.686c15.739,9.377,21.32,28.019,13.73,45.21
	c-5.023,11.163-1.229,18.865,7.032,22.884c29.36,14.735,36.951,49.564,19.09,73.341c-8.929,11.833-5.358,18.307,2.902,25.34
	c20.763,17.526,26.233,52.466-2.679,76.69C485.543,300.51,484.314,308.212,491.793,318.259z"/>
<path style="fill:#FF9F19;" d="M375.921,289.123c0,9.265-7.478,16.744-16.744,16.744c-32.595,0-50.233-11.163-64.41-20.205
	c-12.168-7.702-20.985-13.284-38.736-13.284c-17.861,0-26.568,5.581-38.736,13.284c-14.177,9.042-31.816,20.205-64.522,20.205
	c-9.266,0-16.744-7.479-16.744-16.744c0-9.265,7.478-16.744,16.744-16.744c24.446,0,35.274-7.926,49.339-16.744
	c-14.176-8.93-24.893-16.744-49.339-16.744c-9.266,0-16.744-7.479-16.744-16.744s7.478-16.744,16.744-16.744
	c32.706,0,50.345,11.163,64.522,20.205c12.168,7.702,20.875,13.284,38.736,13.284c17.75,0,26.568-5.581,38.736-13.284
	c14.177-9.042,31.816-20.205,64.41-20.205c9.266,0,16.744,7.479,16.744,16.744s-7.478,16.744-16.744,16.744
	c-24.446,0-35.162,7.926-49.339,16.744c14.177,8.93,24.893,16.744,49.339,16.744C368.443,272.379,375.921,279.858,375.921,289.123z"
	/>
<path style="fill:#F28618;" d="M375.921,289.123c0,9.265-7.478,16.744-16.744,16.744c-32.595,0-50.233-11.163-64.41-20.205
	c-12.168-7.702-20.985-13.284-38.736-13.284V238.89c17.75,0,26.568-5.581,38.736-13.284c14.177-9.042,31.816-20.205,64.41-20.205
	c9.266,0,16.744,7.479,16.744,16.744s-7.478,16.744-16.744,16.744c-24.446,0-35.162,7.926-49.339,16.744
	c14.177,8.93,24.893,16.744,49.339,16.744C368.443,272.379,375.921,279.858,375.921,289.123z"/>
<g>
</g>
<g>
</g>
<g>
</g>
<g>
</g>
<g>
</g>
<g>
</g>
<g>
</g>
<g>
</g>
<g>
</g>
<g>
</g>
<g>
</g>
<g>
</g>
<g>
</g>
<g>
</g>
<g>
</g>
</svg>
